<!-- This file controls the website intro only. -->
<svg xmlns="http://www.w3.org/2000/svg" viewBox="0 0 720 420" role="img" aria-labelledby="title desc">
  <title id="title">D plus mirrored D logo</title>
  <desc id="desc">A metallic D and mirrored D industrial mark for the SWDM Evolution intro.</desc>
  <defs>
    <linearGradient id="steel" x1="0" x2="1" y1="0" y2="1">
      <stop offset="0" stop-color="#f3f7f8"/>
      <stop offset=".18" stop-color="#6f7880"/>
      <stop offset=".42" stop-color="#111820"/>
      <stop offset=".64" stop-color="#ccd4d8"/>
      <stop offset="1" stop-color="#24313a"/>
    </linearGradient>
    <linearGradient id="redCut" x1="0" x2="1">
      <stop offset="0" stop-color="#5b060b"/>
      <stop offset=".5" stop-color="#e01624"/>
      <stop offset="1" stop-color="#5b060b"/>
    </linearGradient>
    <filter id="edgeGlow" x="-25%" y="-25%" width="150%" height="150%">
      <feDropShadow dx="0" dy="0" stdDeviation="5" flood-color="#cbd4d8" flood-opacity=".26"/>
      <feDropShadow dx="0" dy="0" stdDeviation="12" flood-color="#d21421" flood-opacity=".18"/>
    </filter>
  </defs>
  <rect width="720" height="420" fill="#020304"/>
  <g filter="url(#edgeGlow)">
    <path d="M106 86h142c76 0 137 54 137 124s-61 124-137 124H106V86Zm84 71v106h58c30 0 54-24 54-53s-24-53-54-53h-58Z" fill="url(#steel)"/>
    <path d="M614 86H472c-76 0-137 54-137 124s61 124 137 124h142V86Zm-84 71v106h-58c-30 0-54-24-54-53s24-53 54-53h58Z" fill="url(#steel)"/>
    <path d="M329 68h62l-92 284h-62L329 68Z" fill="url(#redCut)" opacity=".82"/>
    <path d="M391 68h-62l92 284h62L391 68Z" fill="url(#redCut)" opacity=".82"/>
  </g>
</svg>
