<!-- This file controls the website intro only. -->
<svg xmlns="http://www.w3.org/2000/svg" viewBox="0 0 520 260" role="img" aria-labelledby="title desc">
  <title id="title">SWDM Evolution logo</title>
  <desc id="desc">Metallic SWDM monogram for the website intro.</desc>
  <defs>
    <linearGradient id="metal" x1="0" y1="0" x2="1" y2="1">
      <stop offset="0" stop-color="#eef8fb"/>
      <stop offset=".28" stop-color="#47b6cd"/>
      <stop offset=".58" stop-color="#102635"/>
      <stop offset=".82" stop-color="#dce8ec"/>
      <stop offset="1" stop-color="#1d566a"/>
    </linearGradient>
    <filter id="cutGlow" x="-20%" y="-20%" width="140%" height="140%">
      <feDropShadow dx="0" dy="0" stdDeviation="5" flood-color="#3cc6e7" flood-opacity=".24"/>
      <feDropShadow dx="0" dy="0" stdDeviation="12" flood-color="#d11724" flood-opacity=".14"/>
    </filter>
    <pattern id="grain" width="26" height="26" patternUnits="userSpaceOnUse">
      <path d="M3 12h8M14 5h5M17 21h7M6 24h3" stroke="#071015" stroke-width="2" opacity=".28"/>
      <path d="M2 3h4M12 16h7M21 9h3" stroke="#f4fbfd" stroke-width="1.4" opacity=".28"/>
    </pattern>
  </defs>
  <rect width="520" height="260" fill="#020304"/>
  <g filter="url(#cutGlow)">
    <path d="M61 194V57h56l58 79V57h57v137h-55l-59-79v79H61Z" fill="url(#metal)"/>
    <path d="M196 194 305 57h78L274 194h-78Z" fill="url(#metal)"/>
    <path d="M297 57h162v54h-86v83h-76V57Z" fill="url(#metal)"/>
    <path d="M352 144h107v50H352v-50Z" fill="url(#metal)"/>
    <path d="M61 194V57h56l58 79V57h57v137h-55l-59-79v79H61Zm135 0L305 57h78L274 194h-78Zm101-137h162v54h-86v83h-76V57Zm55 87h107v50H352v-50Z" fill="url(#grain)" opacity=".9"/>
  </g>
</svg>
