<!-- This file controls the website intro only. -->
<svg xmlns="http://www.w3.org/2000/svg" viewBox="0 0 900 420" role="img" aria-labelledby="title desc">
  <title id="title">SWDM Evolution final logo</title>
  <desc id="desc">Metallic SWDM Evolution final logo lockup for the website intro.</desc>
  <defs>
    <linearGradient id="steelBlue" x1="0" x2="1" y1="0" y2="1">
      <stop offset="0" stop-color="#f4fbfd"/>
      <stop offset=".22" stop-color="#6cb9c9"/>
      <stop offset=".48" stop-color="#10222e"/>
      <stop offset=".78" stop-color="#d8e3e7"/>
      <stop offset="1" stop-color="#245569"/>
    </linearGradient>
    <pattern id="scratches" width="38" height="38" patternUnits="userSpaceOnUse">
      <path d="M5 12h16M19 28h13M9 34h6" stroke="#02070a" stroke-width="2" opacity=".32"/>
      <path d="M3 4h8M25 9h9M15 20h12" stroke="#eef9fb" stroke-width="1.5" opacity=".25"/>
    </pattern>
    <filter id="logoGlow" x="-20%" y="-20%" width="140%" height="140%">
      <feDropShadow dx="0" dy="0" stdDeviation="6" flood-color="#aebcc2" flood-opacity=".24"/>
      <feDropShadow dx="0" dy="0" stdDeviation="16" flood-color="#d11622" flood-opacity=".12"/>
    </filter>
  </defs>
  <rect width="900" height="420" fill="#020304"/>
  <g filter="url(#logoGlow)">
    <path d="M92 292V98h74l90 123V98h72v194h-74l-90-123v123H92Z" fill="url(#steelBlue)"/>
    <path d="M314 292 472 98h98L413 292h-99Z" fill="url(#steelBlue)"/>
    <path d="M468 98h260v74H595v120H468V98Z" fill="url(#steelBlue)"/>
    <path d="M552 220h176v72H552v-72Z" fill="url(#steelBlue)"/>
    <path d="M92 292V98h74l90 123V98h72v194h-74l-90-123v123H92Zm222 0L472 98h98L413 292h-99Zm154-194h260v74H595v120H468V98Zm84 122h176v72H552v-72Z" fill="url(#scratches)" opacity=".82"/>
  </g>
</svg>
